<svg data-v-70b83f88="" version="1.0" xmlns="http://www.w3.org/2000/svg" xmlns:xlink="http://www.w3.org/1999/xlink" width="1000" height="300" viewBox="0 0 340 250"  preserveAspectRatio="xMidYMid meet" color-interpolation-filters="sRGB" style="margin: auto;"> <rect data-v-70b83f88="" x="0" y="0" width="100%" height="100%" fill="#fff" fill-opacity="1" class="background"></rect>  <g data-v-70b83f88="" fill="#333" class="icon-text-wrapper icon-svg-group iconsvg" transform="translate(47.87000274658203,99.01922607421875)"><g class="iconsvg-imagesvg" transform="translate(0,0)"><g><rect fill="#333" fill-opacity="0" stroke-width="2" x="0" y="0" width="60" height="51.96154845414393" class="image-rect"></rect> <svg x="0" y="0" width="60" height="51.96154845414393" filtersec="colorsb225859206" class="image-svg-svg primary" style="overflow: visible;"><svg xmlns="http://www.w3.org/2000/svg" viewBox="0 0 115.4699935913086 100"><g fill-rule="evenodd"><path d="M88.47 31.82a5.89 5.89 0 0 0 .45-2.27 6 6 0 1 0-6.37 5.94L98.83 63.7l-21 36.3h8.77l20.62-35.71zM28 43.46a6 6 0 0 0 5.31-8.66L49.05 7.56H91L86.6 0H45.37L27.12 31.61A6 6 0 0 0 28 43.46zM62.76 76.19a6 6 0 0 0-4.88 2.55H25.32l-21-36.3L0 50l20.62 35.71H58a6 6 0 1 0 4.77-9.52z" fill="#00a2e9"></path><path d="M94.85 14.29h-37a6 6 0 1 0 0 7h32.3l21 36.3 4.32-7.59zM87.18 56.23a6 6 0 0 0-5.08 9.06L66.42 92.44H24.5l4.37 7.56H70.1l18.49-32a6 6 0 0 0-1.41-11.75zM25.66 69.75a6 6 0 1 0 6.89-5.88L16.64 36.3 37.6 0h-8.73L8.25 35.71 26.32 67a6 6 0 0 0-.66 2.75z" fill="#096594"></path></g></svg></svg> <!----></g></g> <g transform="translate(67,11.04077434539795)"><g data-gra="path-name" fill-rule="" class="tp-name iconsvg-namesvg"><g transform="scale(1)"><g><path d="M21.46-10.65L27.23-10.65 27.23-29.46 21.46-29.46ZM14.9 0.42C14.9 0.42 14.94-4.25 14.94-5.13 10.9-5.13 8.12-7.28 8.12-11.49L8.12-29.46 2.53-29.46 2.53-10.65C2.53-3.11 8.08 0.42 14.9 0.42ZM52.52 0L58.08 0 58.08-29.46 52.65-29.46 52.65-9.17 52.44-9.17 38.21-29.46 32.36-29.46ZM32.62 0L38.13 0 38.13-14.44 32.62-22.31ZM71.76 0L77.56 0 66.96-29.46 60.98-29.46ZM79.46-4.38L89.35-29.46 82.87-29.46 76.76-11.74ZM113.8-23.95L113.8-29.46 92-29.46 92-23.95ZM113.8-12.12L113.8-17.34 92-17.34 92-12.12ZM92 0L113.8 0 113.8-5.56 92-5.56ZM124.91-24.91L124.91-29.46 119.19-29.46 119.19-24.91ZM119.19 0L124.87 0 124.87-21.04 119.19-21.04ZM136.36-8.8L136.36-29.46 130.63-29.46 130.63-8.8ZM130.63 0L152.06 0 152.06-5.56 130.63-5.56ZM155.59 0L161.27 0 161.27-10.4 167.88-10.4 173.39 0 179.79 0 172.93-11.36C176.51-13.13 178.11-17 178.11-20.16 178.11-26.09 174.4-29.46 167.75-29.46L155.59-29.46 155.59-24.49 167.12-24.49C170.91-24.49 172.76-22.94 172.76-20.03 172.76-16.92 170.57-15.11 167.16-15.11L155.59-15.11Z" transform="translate(-2.5299999713897705, 29.459999084472656)"></path></g></g></g></g></g><defs v-gra="od"></defs></svg>
